<svg width="214" height="214" fill="none" xmlns="http://www.w3.org/2000/svg"><path fill-rule="evenodd" clip-rule="evenodd" d="M108.461 0c3.622.047 7.202.275 10.729.674a8.564 8.564 0 0016.212 3.116c14.885 4.08 28.473 11.292 40.014 20.883a8.562 8.562 0 0011.396 10.985c10.084 11.264 17.817 24.676 22.427 39.465A8.562 8.562 0 00213 91.829c.114.804.22 1.611.316 2.421l.042.368.056.494a106.666 106.666 0 01.586 8.067 8.485 8.485 0 00-2.787-.464 8.562 8.562 0 00-8.563 8.561 8.562 8.562 0 0010.685 8.295 106.47 106.47 0 01-1.868 10.969 8.562 8.562 0 00-4.858 15.775c-8.49 21.471-23.726 39.539-43.097 51.592a8.562 8.562 0 00-7.957-11.728 8.562 8.562 0 00-1.531 16.984C139.839 210.104 123.891 214 107.033 214c-20.192 0-39.08-5.591-55.196-15.307a8.562 8.562 0 00-7.596-12.514 8.54 8.54 0 00-6.186 2.64 107.705 107.705 0 01-15.426-16.015 8.562 8.562 0 00-6.217-14.446 8.55 8.55 0 00-3 .54C4.867 143.525 0 125.829 0 106.995c0-16.282 3.637-31.714 10.145-45.53a8.562 8.562 0 108.071-14.203A107.581 107.581 0 0135.698 27.22l-.013.225-.006.2-.001.167a8.562 8.562 0 008.563 8.56 8.562 8.562 0 001.361-17.013A106.795 106.795 0 0167.795 7.41a8.512 8.512 0 004.274 1.141A8.564 8.564 0 0079.9 3.46c3.76-.983 7.6-1.765 11.51-2.337A8.564 8.564 0 00108.461 0zm-27.83 27.812a8.562 8.562 0 01-8.562 8.56 8.562 8.562 0 01-8.563-8.56 8.562 8.562 0 018.563-8.56 8.562 8.562 0 018.563 8.56zm19.267 8.56a8.562 8.562 0 008.563-8.56 8.562 8.562 0 00-8.563-8.56 8.562 8.562 0 00-8.563 8.56 8.562 8.562 0 008.563 8.56zm36.391-8.56a8.562 8.562 0 01-8.562 8.56 8.562 8.562 0 01-8.563-8.56 8.562 8.562 0 018.563-8.56 8.562 8.562 0 018.562 8.56zm19.266 8.56a8.562 8.562 0 008.563-8.56 8.562 8.562 0 00-8.563-8.56 8.562 8.562 0 00-8.562 8.56 8.562 8.562 0 008.562 8.56zM44.24 64.195a8.562 8.562 0 008.563-8.56 8.562 8.562 0 00-8.563-8.561 8.562 8.562 0 00-8.562 8.56 8.562 8.562 0 008.563 8.56zm36.392-8.56a8.562 8.562 0 01-8.563 8.56 8.562 8.562 0 01-8.563-8.56 8.562 8.562 0 018.563-8.561 8.562 8.562 0 018.563 8.56zm19.266 8.56a8.562 8.562 0 008.563-8.56 8.562 8.562 0 00-8.563-8.561 8.562 8.562 0 00-8.563 8.56 8.562 8.562 0 008.563 8.56zm36.391-8.56a8.562 8.562 0 01-8.562 8.56 8.562 8.562 0 01-8.563-8.56 8.562 8.562 0 018.563-8.561 8.562 8.562 0 018.562 8.56zm19.266 8.56a8.562 8.562 0 008.563-8.56 8.562 8.562 0 00-8.563-8.561 8.562 8.562 0 00-8.562 8.56 8.562 8.562 0 008.562 8.56zm36.392-8.56a8.562 8.562 0 01-8.563 8.56 8.562 8.562 0 01-8.563-8.56 8.562 8.562 0 018.563-8.561 8.562 8.562 0 018.563 8.56zM24.975 83.453a8.562 8.562 0 01-8.563 8.56 8.562 8.562 0 01-8.563-8.56 8.562 8.562 0 018.563-8.56 8.562 8.562 0 018.563 8.56zm19.265 8.56a8.562 8.562 0 008.563-8.56 8.562 8.562 0 00-8.563-8.56 8.562 8.562 0 00-8.562 8.56 8.562 8.562 0 008.563 8.56zm36.392-8.56a8.562 8.562 0 01-8.563 8.56 8.562 8.562 0 01-8.563-8.56 8.562 8.562 0 018.563-8.56 8.562 8.562 0 018.563 8.56zm19.266 8.56a8.562 8.562 0 008.563-8.56 8.562 8.562 0 00-8.563-8.56 8.562 8.562 0 00-8.563 8.56 8.562 8.562 0 008.563 8.56zm36.391-8.56a8.562 8.562 0 01-8.562 8.56 8.562 8.562 0 01-8.563-8.56 8.562 8.562 0 018.563-8.56 8.562 8.562 0 018.562 8.56zm19.266 8.56a8.562 8.562 0 008.563-8.56 8.562 8.562 0 00-8.563-8.56 8.562 8.562 0 00-8.562 8.56 8.562 8.562 0 008.562 8.56zm36.392-8.56a8.562 8.562 0 01-8.563 8.56 8.562 8.562 0 01-8.563-8.56 8.562 8.562 0 018.563-8.56 8.562 8.562 0 018.563 8.56zM24.975 111.276a8.562 8.562 0 01-8.563 8.56 8.562 8.562 0 01-8.563-8.56 8.562 8.562 0 018.563-8.561 8.562 8.562 0 018.563 8.561zm19.265 8.56a8.562 8.562 0 008.563-8.56 8.562 8.562 0 00-8.563-8.561 8.562 8.562 0 00-8.562 8.561 8.562 8.562 0 008.563 8.56zm36.392-8.56a8.562 8.562 0 01-8.563 8.56 8.562 8.562 0 01-8.563-8.56 8.562 8.562 0 018.563-8.561 8.562 8.562 0 018.563 8.561zm19.266 8.56a8.562 8.562 0 008.563-8.56 8.562 8.562 0 00-8.563-8.561 8.562 8.562 0 00-8.563 8.561 8.562 8.562 0 008.563 8.56zm36.391-8.56a8.562 8.562 0 01-8.562 8.56 8.562 8.562 0 01-8.563-8.56 8.562 8.562 0 018.563-8.561 8.562 8.562 0 018.562 8.561zm19.266 8.56a8.562 8.562 0 008.563-8.56 8.562 8.562 0 00-8.563-8.561 8.562 8.562 0 00-8.562 8.561 8.562 8.562 0 008.562 8.56zm36.392-8.56a8.562 8.562 0 01-8.563 8.56 8.562 8.562 0 01-8.563-8.56 8.562 8.562 0 018.563-8.561 8.562 8.562 0 018.563 8.561zM24.975 139.097a8.562 8.562 0 01-8.563 8.56 8.562 8.562 0 01-8.563-8.56 8.562 8.562 0 018.563-8.561 8.562 8.562 0 018.563 8.561zm19.265 8.56a8.562 8.562 0 008.563-8.56 8.562 8.562 0 00-8.563-8.561 8.562 8.562 0 00-8.562 8.561 8.562 8.562 0 008.563 8.56zm36.392-8.56a8.562 8.562 0 01-8.563 8.56 8.562 8.562 0 01-8.563-8.56 8.562 8.562 0 018.563-8.561 8.562 8.562 0 018.563 8.561zm19.266 8.56a8.562 8.562 0 008.563-8.56 8.562 8.562 0 00-8.563-8.561 8.562 8.562 0 00-8.563 8.561 8.562 8.562 0 008.563 8.56zm36.391-8.56a8.562 8.562 0 01-8.562 8.56 8.562 8.562 0 01-8.563-8.56 8.562 8.562 0 018.563-8.561 8.562 8.562 0 018.562 8.561zm19.266 8.56a8.562 8.562 0 008.563-8.56 8.562 8.562 0 00-8.563-8.561 8.562 8.562 0 00-8.562 8.561 8.562 8.562 0 008.562 8.56zm36.392-8.56a8.562 8.562 0 01-8.563 8.56 8.562 8.562 0 01-8.563-8.56 8.562 8.562 0 018.563-8.561 8.562 8.562 0 018.563 8.561zM44.24 175.478a8.562 8.562 0 008.563-8.56 8.562 8.562 0 00-8.563-8.56 8.562 8.562 0 00-8.562 8.56 8.562 8.562 0 008.563 8.56zm36.392-8.56a8.562 8.562 0 01-8.563 8.56 8.562 8.562 0 01-8.563-8.56 8.562 8.562 0 018.563-8.56 8.562 8.562 0 018.563 8.56zm19.266 8.56c4.729 0 8.563-3.833 8.563-8.56s-3.834-8.56-8.563-8.56a8.562 8.562 0 00-8.563 8.56 8.562 8.562 0 008.563 8.56zm36.391-8.56a8.562 8.562 0 01-8.562 8.56 8.562 8.562 0 01-8.563-8.56 8.562 8.562 0 018.563-8.56 8.562 8.562 0 018.562 8.56zm19.266 8.56a8.562 8.562 0 008.563-8.56 8.562 8.562 0 00-8.563-8.56 8.562 8.562 0 00-8.562 8.56 8.562 8.562 0 008.562 8.56zm36.392-8.56a8.562 8.562 0 01-8.563 8.56 8.562 8.562 0 01-8.563-8.56 8.562 8.562 0 018.563-8.56 8.562 8.562 0 018.563 8.56zM80.632 194.739a8.562 8.562 0 01-8.563 8.561 8.562 8.562 0 01-8.563-8.561 8.562 8.562 0 018.563-8.56 8.562 8.562 0 018.563 8.56zm19.266 8.561a8.562 8.562 0 008.563-8.561 8.562 8.562 0 00-8.563-8.56 8.562 8.562 0 00-8.563 8.56 8.562 8.562 0 008.563 8.561zm36.391-8.561a8.562 8.562 0 01-8.562 8.561 8.562 8.562 0 01-8.563-8.561 8.562 8.562 0 018.563-8.56 8.562 8.562 0 018.562 8.56z" fill="#C4C4C4"/></svg>